{
  "source": "C:\\Users\\Peter\\Desktop\\stuff\\MIUN\\quantitative_research\\video_compression\\videos\\UVG\\ShakeNDry_1920x1080_120fps_420_8bit_YUV.y4m",
  "output": "C:\\Users\\Peter\\Desktop\\stuff\\MIUN\\quantitative_research\\video_compression\\compressed_videos\\UVG\\h264\\1\\ShakeNDry_1920x1080_120fps_420_8bit_YUV_h264.mp4",
  "codec": "h264",
  "ok": "[yuv4mpegpipe @ 0000029bf1ad5e00] Stream #0: not enough frames to estimate rate; consider increasing probesize\nInput #0, yuv4mpegpipe, from 'C:\\Users\\Peter\\Desktop\\stuff\\MIUN\\quantitative_research\\video_compression\\videos\\UVG\\ShakeNDry_1920x1080_120fps_420_8bit_YUV.y4m':\n  Duration: 00:00:02.50, start: 0.000000, bitrate: 2985989 kb/s\n  Stream #0:0: Video: rawvideo (I420 / 0x30323449), yuv420p(progressive), 1920x1080, 120 fps, 120 tbr, 120 tbn\n[out#0/mp4 @ 0000029bf1ada600] Codec AVOption b:a (set bitrate (in bits/s)) has not been used for any stream. The most likely reason is either wrong type (e.g. a video option with no video streams) or that it is a private option of some decoder which was not actually used for any stream.\nStream mapping:\n  Stream #0:0 -> #0:0 (rawvideo (native) -> h264 (libx264))\nPress [q] to stop, [?] for help\n[libx264 @ 0000029bf1adca80] using cpu capabilities: MMX2 SSE2Fast SSSE3 SSE4.2 AVX FMA3 BMI2 AVX2\n[libx264 @ 0000029bf1adca80] profile High, level 5.1, 4:2:0, 8-bit\n[libx264 @ 0000029bf1adca80] 264 - core 165 r3222 b35605a - H.264/MPEG-4 AVC codec - Copyleft 2003-2025 - http://www.videolan.org/x264.html - options: cabac=1 ref=5 deblock=1:0:0 analyse=0x3:0x113 me=hex subme=8 psy=1 psy_rd=1.00:0.00 mixed_ref=1 me_range=16 chroma_me=1 trellis=2 8x8dct=1 cqm=0 deadzone=21,11 fast_pskip=1 chroma_qp_offset=-2 threads=18 lookahead_threads=3 sliced_threads=0 nr=0 decimate=1 interlaced=0 bluray_compat=0 constrained_intra=0 bframes=3 b_pyramid=2 b_adapt=1 b_bias=0 direct=3 weightb=1 open_gop=0 weightp=2 keyint=250 keyint_min=25 scenecut=40 intra_refresh=0 rc_lookahead=50 rc=cbr mbtree=1 bitrate=1000 ratetol=1.0 qcomp=0.60 qpmin=0 qpmax=69 qpstep=4 vbv_maxrate=1000 vbv_bufsize=1000 nal_hrd=none filler=0 ip_ratio=1.40 aq=1:1.00\nOutput #0, mp4, to 'C:\\Users\\Peter\\Desktop\\stuff\\MIUN\\quantitative_research\\video_compression\\compressed_videos\\UVG\\h264\\1\\ShakeNDry_1920x1080_120fps_420_8bit_YUV_h264.mp4':\n  Metadata:\n    encoder         : Lavf62.3.100\n  Stream #0:0: Video: h264 (avc1 / 0x31637661), yuv420p(tv, progressive), 1920x1080, q=2-31, 1000 kb/s, 120 fps, 15360 tbn\n    Metadata:\n      encoder         : Lavc62.11.100 libx264\n    Side data:\n      cpb: bitrate max/min/avg: 1000000/0/1000000 buffer size: 1000000 vbv_delay: N/A\nframe=    0 fps=0.0 q=0.0 size=       0KiB time=N/A bitrate=N/A speed=N/A elapsed=0:00:00.50    \nframe=    0 fps=0.0 q=0.0 size=       0KiB time=N/A bitrate=N/A speed=N/A elapsed=0:00:01.01    \nframe=    0 fps=0.0 q=0.0 size=       0KiB time=N/A bitrate=N/A speed=N/A elapsed=0:00:01.54    \nframe=   20 fps=9.7 q=52.0 size=       0KiB time=00:00:00.15 bitrate=   2.6kbits/s speed=0.0728x elapsed=0:00:02.06    \nframe=   40 fps= 15 q=52.0 size=       0KiB time=00:00:00.31 bitrate=   1.2kbits/s speed=0.122x elapsed=0:00:02.58    \nframe=   60 fps= 19 q=52.0 size=       0KiB time=00:00:00.48 bitrate=   0.8kbits/s speed=0.156x elapsed=0:00:03.10    \nframe=   84 fps= 23 q=51.0 size=       0KiB time=00:00:00.66 bitrate=   0.6kbits/s speed=0.184x elapsed=0:00:03.61    \nframe=  104 fps= 25 q=50.0 size=       0KiB time=00:00:00.85 bitrate=   0.5kbits/s speed=0.206x elapsed=0:00:04.12    \nframe=  124 fps= 27 q=49.0 size=       0KiB time=00:00:01.01 bitrate=   0.4kbits/s speed=0.219x elapsed=0:00:04.64    \nframe=  146 fps= 28 q=49.0 size=       0KiB time=00:00:01.19 bitrate=   0.3kbits/s speed=0.23x elapsed=0:00:05.17    \nframe=  168 fps= 29 q=48.0 size=       0KiB time=00:00:01.38 bitrate=   0.3kbits/s speed=0.243x elapsed=0:00:05.69    \nframe=  192 fps= 31 q=50.0 size=       0KiB time=00:00:01.58 bitrate=   0.2kbits/s speed=0.255x elapsed=0:00:06.20    \nframe=  212 fps= 32 q=49.0 size=       0KiB time=00:00:01.75 bitrate=   0.2kbits/s speed=0.26x elapsed=0:00:06.72    \nframe=  233 fps= 32 q=49.0 size=       0KiB time=00:00:01.92 bitrate=   0.2kbits/s speed=0.266x elapsed=0:00:07.23    \nframe=  250 fps= 32 q=48.0 size=       0KiB time=00:00:02.06 bitrate=   0.2kbits/s speed=0.266x elapsed=0:00:07.76    \n[mp4 @ 0000029bf1adb700] Starting second pass: moving the moov atom to the beginning of the file\n[out#0/mp4 @ 0000029bf1ada600] video:226KiB audio:0KiB subtitle:0KiB other streams:0KiB global headers:0KiB muxing overhead: 1.926903%\nframe=  300 fps= 37 q=-1.0 Lsize=     230KiB time=00:00:02.48 bitrate= 759.2kbits/s speed=0.302x elapsed=0:00:08.21    \n[libx264 @ 0000029bf1adca80] frame I:2     Avg QP:46.11  size: 16854\n[libx264 @ 0000029bf1adca80] frame P:76    Avg QP:45.80  size:  1565\n[libx264 @ 0000029bf1adca80] frame B:222   Avg QP:49.06  size:   350\n[libx264 @ 0000029bf1adca80] consecutive B-frames:  1.3%  0.0%  0.0% 98.7%\n[libx264 @ 0000029bf1adca80] mb I  I16..4: 54.5% 44.9%  0.6%\n[libx264 @ 0000029bf1adca80] mb P  I16..4:  1.1%  0.5%  0.0%  P16..4:  6.0%  0.1%  2.8%  0.0%  0.0%    skip:89.4%\n[libx264 @ 0000029bf1adca80] mb B  I16..4:  0.0%  0.0%  0.0%  B16..8:  4.4%  0.0%  0.0%  direct: 0.0%  skip:95.5%  L0:16.1% L1:83.8% BI: 0.1%\n[libx264 @ 0000029bf1adca80] 8x8 transform intra:39.6% inter:97.8%\n[libx264 @ 0000029bf1adca80] direct mvs  spatial:95.5% temporal:4.5%\n[libx264 @ 0000029bf1adca80] coded y,uvDC,uvAC intra: 12.8% 25.7% 0.9% inter: 0.2% 0.3% 0.0%\n[libx264 @ 0000029bf1adca80] i16 v,h,dc,p: 43% 30%  5% 21%\n[libx264 @ 0000029bf1adca80] i8 v,h,dc,ddl,ddr,vr,hd,vl,hu:  8%  3% 37%  6% 10%  7% 14%  5% 10%\n[libx264 @ 0000029bf1adca80] i4 v,h,dc,ddl,ddr,vr,hd,vl,hu:  0%  3%  0% 10% 12% 14% 26%  7% 27%\n[libx264 @ 0000029bf1adca80] i8c dc,h,v,p: 77% 16%  5%  2%\n[libx264 @ 0000029bf1adca80] Weighted P-Frames: Y:0.0% UV:0.0%\n[libx264 @ 0000029bf1adca80] ref P L0: 75.0%  2.6% 11.9%  4.6%  5.8%\n[libx264 @ 0000029bf1adca80] ref B L0: 80.8% 12.3%  4.7%  2.2%\n[libx264 @ 0000029bf1adca80] ref B L1: 93.7%  6.3%\n[libx264 @ 0000029bf1adca80] kb/s:737.40\n",
  "seconds": 8.430501461029053,
  "probe_out": {}
}